REM MD5 ee067473b926f930dcbe074bad2b6bae
FILE "Army Men - Air Attack (Europe) (En,Es,It).bin" BINARY
  TRACK 01 MODE2/2352
    INDEX 01 00:00:00
  TRACK 02 AUDIO
    INDEX 00 65:55:69
    INDEX 01 65:57:69
  TRACK 03 AUDIO
    INDEX 00 66:57:70
    INDEX 01 66:59:70
REM LEADOUT 70:04:45
